<svg xmlns="http://www.w3.org/2000/svg" width="512" height="512" viewBox="0 0 512 512">
<rect width="100%" height="100%" fill="white"/>
<polyline points="44.42,246.32 49.19,245.90 53.97,245.49 58.75,245.10 63.54,244.71 68.33,244.34 73.12,243.97 77.91,243.62 82.71,243.27 87.51,242.92 92.32,242.58 97.12,242.25 101.93,241.92 106.74,241.59 111.55,241.26 116.36,240.94 121.18,240.61 125.99,240.29 130.80,239.96 135.62,239.63 140.43,239.29 145.24,238.95 150.05,238.61 154.87,238.26 159.68,237.90 164.48,237.53 169.29,237.16 174.10,236.78 178.90,236.40 183.70,236.02 188.51,235.65 193.31,235.28 198.11,234.91 202.91,234.56 207.71,234.21 212.52,233.88 217.32,233.57 222.12,233.29 226.87,233.22 231.49,233.69 235.91,234.96 240.18,236.92 244.43,239.21 248.77,241.48 253.22,243.60 257.71,245.57 262.18,247.38 266.57,249.04 270.81,250.54 274.81,251.77 278.09,251.69 280.01,248.70 280.74,242.73 283.10,238.42 288.09,237.77 291.39,234.74 292.82,229.82 293.32,225.22 294.16,223.71 297.03,225.65 301.54,226.25 306.20,226.55 310.90,226.71 315.63,226.74 320.38,226.66 325.16,226.47 329.96,226.21 334.77,225.88 339.60,225.50 344.43,225.08 349.27,224.64 354.11,224.20 358.94,223.76 363.77,223.35 368.60,222.95 373.42,222.57 378.24,222.21 383.05,221.85 387.87,221.51 392.67,221.18 397.48,220.85 402.29,220.53 407.09,220.21 411.89,219.90 416.69,219.58 421.50,219.26 426.30,218.93 431.10,218.60 435.91,218.26 440.71,217.91 445.52,217.55 450.34,217.17 455.15,216.78 459.97,216.37 464.79,215.93 469.62,215.48" fill="none" stroke="black" stroke-width="4.0" stroke-linecap="round" stroke-linejoin="round"/>
<polyline points="264.15,55.07 263.98,59.46 263.89,63.86 263.88,68.27 263.94,72.68 264.05,77.10 264.22,81.52 264.42,85.94 264.65,90.36 264.90,94.78 265.15,99.20 265.40,103.62 265.65,108.03 265.87,112.44 266.07,116.84 266.25,121.24 266.42,125.64 266.58,130.04 266.73,134.44 266.88,138.85 267.03,143.26 267.18,147.68 267.34,152.11 267.51,156.55 267.69,161.00 267.89,165.46 268.07,169.92 268.22,174.36 268.29,178.78 268.26,183.14 268.11,187.44 267.79,191.66 267.25,195.79 266.41,199.83 265.19,203.78 263.53,207.62 261.35,211.36 258.66,214.99 255.81,218.49 253.22,221.87 251.32,225.12 250.53,228.29 251.24,231.42 253.54,234.59 256.49,237.93 258.97,241.58 260.23,245.61 260.78,249.86 261.37,254.13 262.52,258.27 264.12,262.30 265.99,266.27 267.94,270.22 269.76,274.21 271.25,278.29 272.31,282.48 272.97,286.76 273.32,291.13 273.46,295.54 273.47,299.99 273.44,304.45 273.44,308.90 273.46,313.34 273.52,317.77 273.61,322.19 273.72,326.60 273.85,331.01 274.00,335.42 274.16,339.82 274.34,344.22 274.53,348.62 274.72,353.02 274.92,357.43 275.12,361.83 275.32,366.24 275.52,370.64 275.72,375.05 275.92,379.47 276.12,383.88 276.31,388.29 276.50,392.71 276.69,397.12 276.87,401.54 277.05,405.95 277.23,410.37 277.39,414.79 277.55,419.20 277.70,423.62 277.85,428.03 277.98,432.44 278.11,436.86 278.23,441.27 278.33,445.67 278.42,450.08 278.51,454.48 278.58,458.89" fill="none" stroke="black" stroke-width="4.0" stroke-linecap="round" stroke-linejoin="round"/>
</svg>